<svg xmlns="http://www.w3.org/2000/svg" width="19.581" height="20" viewBox="0 0 19.581 20">
  <path id="bxs-cog" d="M2.344,15.271l2,3.46A1,1,0,0,0,5.71,19.1l1.4-.806A8.074,8.074,0,0,0,9,19.4V21a1,1,0,0,0,1,1h4a1,1,0,0,0,1-1V19.4a8.094,8.094,0,0,0,1.9-1.112l1.4.806a1,1,0,0,0,1.366-.365l2-3.46a1,1,0,0,0-.365-1.366l-1.372-.793a7.683,7.683,0,0,0,0-2.224l1.372-.793a1,1,0,0,0,.365-1.366l-2-3.46A1,1,0,0,0,18.29,4.9l-1.4.806A8.034,8.034,0,0,0,15,4.6V3a1,1,0,0,0-1-1H10A1,1,0,0,0,9,3V4.6A8.094,8.094,0,0,0,7.105,5.71L5.71,4.9a1,1,0,0,0-1.366.365l-2,3.46A1,1,0,0,0,2.709,10.1l1.372.793a7.683,7.683,0,0,0,0,2.224l-1.372.793a1,1,0,0,0-.365,1.366ZM12,8a4,4,0,1,1-4,4A4,4,0,0,1,12,8Z" transform="translate(-2.21 -2)" fill="#0038ff"/>
</svg>
