<svg xmlns="http://www.w3.org/2000/svg" width="15" height="12" viewBox="0 0 15 12">
  <path id="bxs-id-card_1_" data-name="bxs-id-card (1)" d="M15.5,4H3.5A1.5,1.5,0,0,0,2,5.5v9A1.5,1.5,0,0,0,3.5,16h12A1.5,1.5,0,0,0,17,14.5v-9A1.5,1.5,0,0,0,15.5,4ZM7.036,7a1.458,1.458,0,0,1,1.5,1.5,1.458,1.458,0,0,1-1.5,1.5,1.458,1.458,0,0,1-1.5-1.5A1.457,1.457,0,0,1,7.036,7Zm2.786,6H4.25v-.349c0-1.03,1.257-2.089,2.786-2.089s2.786,1.059,2.786,2.089Zm4.928-.75h-3v-1.5h3Zm0-3H11V7.75h3.75Z" transform="translate(-2 -4)" fill="rgba(170,170,170,0.5)"/>
</svg>
